<?xml version="1.0" encoding="utf-8"?>
<!-- Generated by IcoMoon.io -->
<!DOCTYPE svg PUBLIC "-//W3C//DTD SVG 1.1//EN" "http://www.w3.org/Graphics/SVG/1.1/DTD/svg11.dtd">
<svg version="1.1" xmlns="http://www.w3.org/2000/svg" xmlns:xlink="http://www.w3.org/1999/xlink" width="32" height="32" viewBox="0 0 32 32">
<path d="M13.054 5.525l0.063-2.042h4.4v4.232l4.421-0.021c2.421-0.021 4.421 0.021 4.421 0.084v1.389h-8.842v2.737h3.684c3.263 0 3.684 0.042 3.684 0.337 0 0.611-1.474 4.779-2.211 6.253l-0.695 1.432 0.526 0.21c1.368 0.526 5.621 1.853 7.284 2.295l1.832 0.484v5.411l-0.674-0.295c-1.263-0.526-8.674-3.958-9.874-4.568l-1.2-0.59-0.379 0.442c-0.926 1.032-3.684 3.032-5.221 3.768-4.316 2.105-9.074 1.874-11.979-0.568-2.737-2.295-2.505-6.421 0.442-8.526 1.516-1.074 3.095-1.516 5.516-1.537 2.379 0 4.126 0.316 7.642 1.389 1.158 0.337 2.189 0.568 2.337 0.526 0.253-0.105 1.6-3.368 1.916-4.589l0.126-0.505-14.126 0.126v-1.495h6.947v-2.737h-8.421v-1.579h8.316zM12.233 19.251c-1.684-0.568-2.337-0.695-4.4-0.758-2.695-0.063-3.684 0.147-4.905 1.074-0.968 0.737-1.284 1.537-1.158 2.947 0.19 2.274 1.79 3.495 4.779 3.663 2.863 0.168 5.095-0.526 7.495-2.316 0.716-0.526 1.579-1.326 1.958-1.79l0.674-0.842-1.221-0.653c-0.674-0.358-2.126-0.947-3.221-1.326z" fill="#444444"></path>
</svg>
