<?xml version="1.0" encoding="utf-8"?>
<!-- Generated by IcoMoon.io -->
<!DOCTYPE svg PUBLIC "-//W3C//DTD SVG 1.1//EN" "http://www.w3.org/Graphics/SVG/1.1/DTD/svg11.dtd">
<svg version="1.1" xmlns="http://www.w3.org/2000/svg" xmlns:xlink="http://www.w3.org/1999/xlink" width="32" height="32" viewBox="0 0 32 32">
<path d="M7.964 12.667l0.013-0.013-0.013-0zM24.017 12.574v0.019l0.010-0.009zM12.657 24.082h0.013l-0.013-0.013v0.013zM12.635 7.966h0.019l-0.009-0.009zM19.348 7.913h-0.013l0.013 0.013zM7.978 19.36v-0.019l-0.009 0.009zM19.307 24.079h-0.018l0.009 0.009zM16.001 2.133v0c7.658 0 13.865 6.208 13.865 13.867s-6.207 13.867-13.865 13.867c-7.659 0-13.868-6.208-13.868-13.867s6.209-13.867 13.868-13.867zM21.048 13.459h-0v1.602c0.024 0.148 0.042 0.297 0.053 0.446 0.030 0.395 0.012 0.792-0.052 1.184l6.494-6.493c-0.122-0.246-0.252-0.49-0.39-0.73-0.549-0.955-1.228-1.855-2.044-2.671-0.349-0.349-0.714-0.67-1.091-0.969-0.923-0.733-1.922-1.322-2.969-1.766v9.398zM14.564 3.142h-0c-1.171 0.134-2.294 0.424-3.348 0.851l7.779 7.778c0.122 0.088 0.239 0.18 0.353 0.278 0.3 0.258 0.568 0.552 0.8 0.874v-9.183c-0.261-0.088-0.524-0.168-0.792-0.24-1.064-0.287-2.18-0.444-3.334-0.444-0.493 0-0.979 0.031-1.457 0.086zM5.887 7.966l0-0c-0.733 0.923-1.322 1.922-1.766 2.969h11.001c0.148-0.024 0.297-0.041 0.446-0.053 0.395-0.030 0.792-0.012 1.184 0.052l-6.494-6.494c-0.246 0.122-0.49 0.252-0.73 0.39-0.955 0.549-1.855 1.228-2.671 2.044-0.349 0.349-0.67 0.714-0.969 1.092zM3.192 17.438c0.134 1.171 0.424 2.294 0.851 3.348l7.778-7.779c0.088-0.122 0.18-0.239 0.278-0.353 0.258-0.3 0.552-0.568 0.874-0.8h-9.183c-0.088 0.26-0.168 0.524-0.24 0.792-0.287 1.064-0.443 2.18-0.443 3.334 0 0.493 0.031 0.979 0.086 1.457zM10.947 18.475l-0.001-0v-1.602c-0.024-0.148-0.041-0.297-0.053-0.446-0.030-0.395-0.012-0.792 0.052-1.184l-6.493 6.493c0.122 0.246 0.252 0.49 0.39 0.73 0.549 0.954 1.228 1.855 2.044 2.671 0.349 0.349 0.714 0.67 1.092 0.97 0.923 0.733 1.922 1.322 2.969 1.766v-9.398zM16 11.815v0c-2.311 0-4.186 1.874-4.186 4.185s1.874 4.186 4.186 4.186c2.312 0 4.185-1.874 4.185-4.186s-1.874-4.185-4.185-4.185zM17.441 28.853l0 0c1.171-0.134 2.294-0.424 3.348-0.851l-7.778-7.779c-0.122-0.088-0.239-0.18-0.353-0.278-0.3-0.258-0.568-0.552-0.8-0.874v9.183c0.261 0.088 0.524 0.168 0.792 0.24 1.064 0.287 2.18 0.443 3.334 0.443 0.493 0 0.979-0.031 1.457-0.086zM26.055 24.080v0c0.733-0.923 1.322-1.922 1.766-2.969h-11c-0.148 0.024-0.297 0.041-0.446 0.053-0.395 0.030-0.792 0.012-1.184-0.052l6.493 6.494c0.246-0.122 0.49-0.252 0.73-0.39 0.955-0.549 1.855-1.228 2.671-2.044 0.349-0.349 0.67-0.714 0.97-1.092zM28.214 20.145v0c0.088-0.261 0.168-0.525 0.241-0.792 0.287-1.064 0.444-2.18 0.444-3.334 0-0.493-0.032-0.979-0.086-1.457-0.134-1.171-0.424-2.294-0.851-3.348l-7.779 7.779c-0.087 0.122-0.18 0.239-0.277 0.353-0.258 0.3-0.552 0.568-0.874 0.8h9.183zM24.040 19.346v-0.013l-0.013 0.013h0.013z" fill="#444444"></path>
</svg>
