<?xml version="1.0" encoding="utf-8"?>
<!-- Generated by IcoMoon.io -->
<!DOCTYPE svg PUBLIC "-//W3C//DTD SVG 1.1//EN" "http://www.w3.org/Graphics/SVG/1.1/DTD/svg11.dtd">
<svg version="1.1" xmlns="http://www.w3.org/2000/svg" xmlns:xlink="http://www.w3.org/1999/xlink" width="32" height="32" viewBox="0 0 32 32">
<path d="M14.355 2.783c1.088-0.245 3.168-0.171 4.16 0.149 3.403 1.088 5.845 4.011 6.24 7.488 0.085 0.736 0.171 1.035 0.427 1.429 0.416 0.661 0.587 1.525 0.459 2.251-0.107 0.565-0.096 0.565 0.363 1.173 0.661 0.885 1.493 2.603 1.749 3.659 0.181 0.715 0.213 1.099 0.171 1.867-0.085 1.451-0.459 2.379-0.907 2.219-0.309-0.107-0.885-0.704-1.301-1.344l-0.395-0.608-0.299 0.768c-0.171 0.427-0.555 1.141-0.864 1.6l-0.565 0.832 0.384 0.16c0.555 0.235 1.067 0.651 1.269 1.024 0.085 0.181 0.139 0.352 0.117 0.384-0.032 0.021 0.011 0.213 0.096 0.405 0.256 0.629 0.032 1.291-0.715 2.101-1.003 1.056-2.901 1.259-6.027 0.64-2.208-0.437-3.093-0.437-5.216-0.021-2.101 0.416-2.837 0.48-3.904 0.331-1.429-0.213-2.112-0.533-2.485-1.173-0.064-0.107-0.213-0.331-0.331-0.501-0.149-0.213-0.213-0.459-0.203-0.843 0.011-1.109 0.395-1.76 1.269-2.208 0.235-0.117 0.448-0.235 0.459-0.256 0.021-0.011-0.181-0.331-0.448-0.704-0.48-0.683-1.131-1.941-1.131-2.197 0-0.213-0.171-0.149-0.288 0.107-0.192 0.416-1.077 1.333-1.419 1.472-0.437 0.181-0.576 0.043-0.8-0.8-0.491-1.92 0.149-4.213 1.792-6.368l0.672-0.885-0.043-0.779c-0.032-0.587 0-0.832 0.128-1.035 0.096-0.139 0.171-0.395 0.171-0.555 0-0.309 0.352-0.992 0.512-0.992 0.053 0 0.128-0.395 0.16-0.885 0.309-3.947 2.955-7.061 6.741-7.904zM18.952 6.623c-0.64-0.416-1.483-0.085-1.888 0.757-0.352 0.704-0.363 2.112-0.011 2.763 1.024 1.963 2.944 0.8 2.773-1.675-0.064-0.8-0.405-1.536-0.875-1.845zM14.472 6.729c-0.395-0.256-1.12-0.224-1.472 0.075-0.501 0.427-0.757 1.099-0.757 1.995 0 1.195 0.405 1.973 1.173 2.304 0.491 0.213 0.928 0.085 1.355-0.395 0.469-0.512 0.629-1.12 0.576-2.080-0.053-0.853-0.395-1.579-0.875-1.899zM19.080 11.882c-1.173-0.288-3.637-0.373-4.789-0.149-1.675 0.32-3.616 1.195-3.616 1.643 0 0.117 0.139 0.309 0.32 0.437 0.395 0.288 1.28 0.672 1.355 0.597 0.032-0.032-0.043-0.235-0.171-0.448s-0.213-0.416-0.181-0.437c0.021-0.032 0.299 0.139 0.619 0.373 2.304 1.728 5.163 1.685 7.531-0.096 0.651-0.491 0.811-0.48 0.427 0.032-0.437 0.587-0.448 0.619-0.107 0.512 0.576-0.16 1.515-0.757 1.515-0.96 0-0.373-1.515-1.152-2.901-1.504zM12.189 15.615c-0.651-0.224-0.875-0.256-0.704-0.107 0.149 0.139 1.088 0.427 2.005 0.597 1.163 0.224 3.264 0.341 3.264 0.181 0-0.085-0.32-0.128-0.992-0.128-1.12 0-2.688-0.235-3.573-0.544zM18.301 16.159c-0.171 0.043-0.587 0.075-0.907 0.075h-0.587l0.64-0.075c0.352-0.043 0.757-0.075 0.907-0.075 0.235-0.011 0.224 0-0.053 0.075zM9.683 17.738c-0.075-0.043-0.331-0.203-0.587-0.352l-0.448-0.277-0.149 0.352c-0.245 0.587-0.405 1.973-0.331 2.795 0.171 1.749 0.907 3.264 2.187 4.544 1.685 1.675 3.712 2.432 6.187 2.315 3.52-0.16 6.453-2.485 7.307-5.781 0.288-1.152 0.139-3.744-0.256-4.139-0.043-0.043-0.341 0.085-0.661 0.299-2.272 1.515-5.376 2.165-8.597 1.824l-0.885-0.096v1.355c0 2.069-0.139 2.261-1.611 2.24-0.885-0.011-1.589-0.267-1.995-0.736-0.448-0.501-0.501-1.163-0.245-2.88 0.149-1.035 0.171-1.408 0.085-1.461zM8.765 24.863c-0.203-0.245-0.64-0.203-1.077 0.096-0.48 0.352-0.597 0.555-0.331 0.64 0.192 0.053 0.181 0.085-0.075 0.576-0.245 0.448-0.267 0.555-0.149 0.8 0.341 0.747 1.696 1.237 3.456 1.237 1.259 0 1.472-0.064 1.472-0.384 0-0.171-0.213-0.416-0.768-0.864-0.416-0.341-0.96-0.8-1.195-1.035-0.245-0.224-0.608-0.512-0.811-0.651-0.203-0.128-0.437-0.32-0.523-0.416zM24.2 24.841c-0.405-0.213-0.448-0.203-0.779 0.277-0.192 0.277-0.416 0.459-0.629 0.512-0.181 0.053-0.384 0.192-0.448 0.32-0.128 0.245-0.501 0.533-1.451 1.077-0.757 0.427-1.013 0.736-0.789 0.949 0.107 0.117 0.491 0.16 1.472 0.16 1.536 0.021 2.325-0.171 2.923-0.693 0.363-0.32 0.384-0.373 0.341-0.853-0.032-0.288-0.139-0.608-0.245-0.725-0.171-0.181-0.171-0.213-0.021-0.213 0.459 0 0.224-0.501-0.373-0.811zM17.576 8.137c0.224-0.245 0.587-0.245 0.896 0.011 0.203 0.16 0.245 0.299 0.256 0.757 0 0.608-0.213 0.864-0.32 0.384l-0.107-0.555c-0.096-0.437-0.501-0.309-0.64 0.213-0.139 0.501-0.341 0.608-0.427 0.256-0.075-0.288 0.085-0.789 0.341-1.067zM13.939 8.041c0.437-0.48 1.109 0.011 1.109 0.811 0 0.373-0.064 0.555-0.267 0.747-0.299 0.309-0.448 0.331-0.779 0.107-0.448-0.32-0.48-1.205-0.064-1.664zM14.675 8.703c0-0.149-0.053-0.277-0.117-0.299-0.181-0.064-0.373 0.235-0.299 0.437 0.107 0.267 0.416 0.16 0.416-0.139z" fill="#444444"></path>
</svg>
