<?xml version="1.0" encoding="utf-8"?>
<!-- Generated by IcoMoon.io -->
<!DOCTYPE svg PUBLIC "-//W3C//DTD SVG 1.1//EN" "http://www.w3.org/Graphics/SVG/1.1/DTD/svg11.dtd">
<svg version="1.1" xmlns="http://www.w3.org/2000/svg" xmlns:xlink="http://www.w3.org/1999/xlink" width="32" height="32" viewBox="0 0 32 32">
<path d="M9.648 3.726c5.708-1.018 11.527 2.1 12.905 6.92l0.176 0.611h-0.851c-6.282 0-11.111 5.097-9.714 10.241l0.176 0.675h-0.509c-0.851 0-2.128-0.176-3.127-0.426l-0.953-0.231-3.589 1.924 0.5-1.489c0.583-1.739 0.583-1.712 0.194-1.961-7.086-4.607-4.117-14.672 4.792-16.263zM8.871 8.231c-0.629-0.426-1.675-0.213-2.109 0.435-0.99 1.443 0.731 3.136 2.202 2.174 0.907-0.592 0.851-1.97-0.092-2.609zM16.457 8.231c-0.398-0.268-1.119-0.287-1.582-0.037-1.175 0.62-1.027 2.35 0.231 2.831 1.739 0.666 2.905-1.748 1.351-2.794zM19.889 12.043c9.038-1.637 15.163 8.409 8.187 13.414-0.62 0.444-0.611 0.342-0.148 1.767 0.204 0.638 0.361 1.193 0.342 1.24-0.018 0.037-0.685-0.278-1.48-0.712l-1.443-0.777-0.685 0.185c-5.8 1.591-11.841-1.961-12.073-7.114-0.176-3.849 2.886-7.197 7.299-8.002zM19.713 16.197c-1.027-0.666-2.304 0.37-1.841 1.489 0.407 0.971 1.915 0.897 2.267-0.111 0.166-0.472-0.037-1.119-0.426-1.378zM25.893 16.308c-0.555-0.527-1.508-0.361-1.878 0.324-0.564 1.064 0.583 2.174 1.674 1.619 0.712-0.37 0.814-1.36 0.203-1.943z" fill="#444444"></path>
</svg>
