<?xml version="1.0" encoding="utf-8"?>
<!-- Generated by IcoMoon.io -->
<!DOCTYPE svg PUBLIC "-//W3C//DTD SVG 1.1//EN" "http://www.w3.org/Graphics/SVG/1.1/DTD/svg11.dtd">
<svg version="1.1" xmlns="http://www.w3.org/2000/svg" xmlns:xlink="http://www.w3.org/1999/xlink" width="32" height="32" viewBox="0 0 32 32">
<path d="M20.992 4.263c1.308-0.558 4.136-0.173 5.79 0.789 2.52 1.5 4.193 4.77 3.847 7.579-0.269 2.154-1.039 2.962-2.193 2.308-0.5-0.288-0.5-0.327-0.5-2.481 0-2.424-0.135-2.828-1.308-4.155-0.962-1.116-2.231-1.616-4.117-1.616-1.346 0-1.654-0.058-1.981-0.385-0.673-0.673-0.462-1.635 0.462-2.039zM11.528 7.841c1.231-0.442 2.674-0.481 3.424-0.096 0.904 0.462 1.231 1.289 1.096 2.808l-0.115 1.289 1.289-0.442c3.232-1.096 5.405-0.673 6.001 1.154 0.192 0.577 0.077 1.558-0.269 2.404-0.096 0.212 0.115 0.385 0.789 0.616 3.789 1.346 4.193 5.309 0.866 8.464-4.443 4.232-12.599 5.213-18.659 2.251-5.828-2.847-6.175-8.194-0.885-13.811 2.231-2.385 4.309-3.866 6.463-4.636zM16.876 15.285c-2.251-0.635-4.77-0.539-7.117 0.25-1.558 0.519-2.366 1-3.424 2-1.135 1.058-1.654 2.097-1.654 3.289 0 2.174 1.731 3.866 4.79 4.732 1.616 0.442 4.905 0.327 6.675-0.25 3.308-1.096 5.348-3.155 5.348-5.444 0-2.058-1.75-3.789-4.617-4.578zM10.816 17.151c1.154-0.539 3.001-0.615 4.097-0.154 1.366 0.558 2.52 2.116 2.539 3.424 0 1.597-1.096 3.232-2.77 4.116-1.308 0.673-3.463 0.731-4.636 0.096-1.52-0.808-2.212-1.885-2.212-3.462 0-1.731 1.039-3.116 2.981-4.020zM12.221 20.767c-0.366-0.365-1.462-0.269-1.885 0.154s-0.519 1.327-0.154 1.693c0.654 0.654 2.27-0.135 2.27-1.096 0-0.288-0.096-0.616-0.231-0.75zM21.319 8.206c0.346-0.346 0.577-0.404 1.539-0.327 2.135 0.154 3.636 1.731 3.636 3.828 0 1.712-0.846 2.52-1.885 1.789-0.346-0.231-0.423-0.481-0.423-1.347 0-1.385-0.539-2.001-1.75-2.001-1.404 0-2.001-1.058-1.116-1.943z" fill="#444444"></path>
</svg>
