<?xml version="1.0" encoding="utf-8"?>
<!-- Generated by IcoMoon.io -->
<!DOCTYPE svg PUBLIC "-//W3C//DTD SVG 1.1//EN" "http://www.w3.org/Graphics/SVG/1.1/DTD/svg11.dtd">
<svg version="1.1" xmlns="http://www.w3.org/2000/svg" xmlns:xlink="http://www.w3.org/1999/xlink" width="32" height="32" viewBox="0 0 32 32">
<path d="M6.473 6.496c0.369-0.049 23.5-0.017 23.659 0.029 0.704 0.213 1.121 0.801 1.080 1.519-0.015 0.254-3.557 15.522-3.672 15.83-0.298 0.794-1.080 1.456-1.908 1.615-0.291 0.054-23.424 0.051-23.698-0.005-0.733-0.149-1.175-0.73-1.148-1.51 0.012-0.286 3.461-15.255 3.64-15.783 0.286-0.855 1.163-1.58 2.047-1.695zM6.205 11.362c0-0.039-1.273-0.059-1.285-0.019-0.234 0.75-0.762 3.508-0.718 3.755 0.2 1.102 2.655 1.136 3.393 0.046 0.225-0.33 0.281-0.503 0.711-2.201 0.2-0.787 0.376-1.466 0.388-1.512 0.015-0.046 0.022-0.088 0.020-0.090-0.010-0.010-1.092-0.024-1.092-0.015 0 0.205-0.691 3.124-0.784 3.305-0.33 0.655-1.231 0.706-1.366 0.076-0.046-0.215 0.317-1.893 0.684-3.144 0.027-0.093 0.049-0.183 0.049-0.2zM22.559 11.362c-0.137-0.029-0.401-0.039-1.324-0.046l-1.156-0.007-0.012 0.054c-0.007 0.029-0.083 0.384-1.043 4.5-0.012 0.078 1.124 0.078 1.141 0 0.007-0.027 0.051-0.237 0.098-0.464 0.247-1.194 0.217-1.136 0.599-1.136 1.263 0 1.976-0.393 2.318-1.27 0.34-0.874 0.115-1.468-0.62-1.629zM12.693 12.945c-0.528-0.132-1.143 0.34-0.838 0.645 0.298 0.298 1.116 0.024 1.116-0.374 0-0.11-0.125-0.232-0.278-0.271zM9.854 13.248c0.002-0.085-0.034-0.095-0.193-0.059-0.054 0.015-0.266 0.051-0.474 0.083-0.457 0.073-0.405 0.019-0.481 0.503-0.068 0.44-0.171 0.938-0.342 1.642-0.134 0.554-0.178 0.506 0.43 0.486l0.501-0.017 0.029-0.147c0.027-0.137 0.318-1.529 0.342-1.639 0.012-0.056 0.191-0.132 0.315-0.132 0.225 0 0.22 0.161-0.041 1.302-0.066 0.296-0.125 0.559-0.127 0.586-0.005 0.054-0.005 0.054 0.484 0.046 0.572-0.010 0.53 0.012 0.586-0.31 0.022-0.134 0.081-0.42 0.127-0.635 0.256-1.19 0.269-1.304 0.169-1.495-0.164-0.32-0.662-0.364-1.17-0.107l-0.193 0.098 0.020-0.066c0.010-0.037 0.020-0.1 0.020-0.139zM17.451 13.236c0.002-0.076-0.039-0.081-0.242-0.037-0.081 0.020-0.296 0.056-0.476 0.086-0.398 0.061-0.354 0.015-0.415 0.427-0.066 0.435-0.191 1.038-0.344 1.671-0.144 0.596-0.193 0.535 0.418 0.518l0.501-0.015 0.032-0.171c0.042-0.21 0.283-1.37 0.325-1.544 0.032-0.139 0.137-0.203 0.325-0.203 0.235 0.002 0.232 0.154-0.037 1.319-0.068 0.288-0.125 0.547-0.127 0.574-0.005 0.059 0.943 0.061 0.999 0.005 0.015-0.017 0.059-0.195 0.095-0.396 0.037-0.203 0.122-0.608 0.188-0.904 0.293-1.3-0.090-1.725-1.087-1.209l-0.193 0.098 0.020-0.081c0.010-0.041 0.020-0.105 0.020-0.139zM27.174 13.209c-0.017-0.029-0.059-0.024-0.315 0.029-0.12 0.027-0.322 0.064-0.449 0.083-0.288 0.044-0.288 0.041-0.252 0.261 0.041 0.251 0.144 1.055 0.222 1.749l0.068 0.596-0.261 0.454c-0.142 0.252-0.296 0.518-0.342 0.591-0.044 0.073-0.117 0.2-0.166 0.281-0.137 0.232-0.164 0.256-0.31 0.256h-0.127l-0.054 0.176c-0.029 0.098-0.068 0.232-0.088 0.296l-0.037 0.12 0.41-0.010c0.699-0.015 0.694-0.007 1.507-1.497 0.266-0.484 1.021-1.813 1.568-2.758 0.405-0.699 0.403-0.674 0.054-0.603-0.139 0.027-0.33 0.061-0.425 0.076-0.357 0.051-0.286-0.020-0.611 0.623-0.159 0.318-0.298 0.567-0.305 0.557-0.010-0.012-0.029-0.298-0.088-1.28zM15.111 13.239c-1.163-0.215-2.074 0.586-2.071 1.818 0 0.711 0.623 1.058 1.532 0.855 1.341-0.298 1.776-2.445 0.54-2.672zM24.318 13.295c-0.919-0.43-2.186 1.461-1.576 2.35 0.242 0.349 1.102 0.471 1.282 0.181 0.029-0.049 0.064-0.024 0.056 0.041l-0.007 0.068 0.523 0.007c0.623 0.007 0.545 0.068 0.65-0.503 0.068-0.381 0.242-1.163 0.457-2.062 0.037-0.156 0.059-0.154-0.459-0.071-0.638 0.105-0.63 0.103-0.64 0.166-0.007 0.051-0.012 0.049-0.086-0.034-0.044-0.049-0.132-0.115-0.2-0.144zM12.829 13.764c-0.017-0.020-0.093-0.015-0.212 0.012-0.054 0.012-0.271 0.049-0.484 0.081-0.459 0.068-0.396 0.010-0.457 0.418-0.073 0.474-0.178 0.933-0.296 1.297-0.125 0.376-0.164 0.347 0.467 0.33l0.525-0.015 0.044-0.232c0.037-0.193 0.271-1.226 0.393-1.739 0.020-0.076 0.027-0.144 0.020-0.152zM15.634 17.071c0-0.015-0.173-0.024-0.975-0.024l-0.166 0.298c-0.191 0.34-0.247 0.386-0.464 0.386h-0.127l-0.173 0.581c0 0.127 0.941-0.078 1.111-0.242l0.076-0.071h1.37l0.169-0.569c0.012-0.039-0.022-0.041-0.967-0.059 0-0.007 0.034-0.073 0.073-0.147 0.042-0.071 0.073-0.139 0.073-0.154zM17.735 17.076c0-0.037-0.818-0.044-0.843-0.007-0.017 0.029-1.165 3.843-1.219 4.048-0.11 0.425 0.022 0.486 1.033 0.469l0.471-0.007 0.098-0.327c0.115-0.388 0.139-0.354-0.234-0.318-0.469 0.046-0.459 0.115-0.142-0.918l0.164-0.537 1.832-0.024 0.154-0.071c0.178-0.083 0.291-0.198 0.396-0.406 0.078-0.154 0.613-1.893 0.591-1.918-0.007-0.007-0.308-0.012-0.667-0.012-0.904 0-1.199 0.056-1.554 0.291-0.098 0.066-0.178 0.112-0.178 0.105 0-0.010 0.022-0.088 0.049-0.176s0.049-0.173 0.049-0.191zM21.936 17.069c0-0.012-0.203-0.022-0.449-0.022h-0.452l-0.061 0.2c-0.032 0.112-0.271 0.901-1.031 3.42-0.037 0.11-0.044 0.117-0.12 0.117-0.1 0-0.093-0.010-0.183 0.286l-0.088 0.281c-0.012 0.042 0.042 0.044 0.882 0.044 0.987 0 0.899-0.015 0.855 0.142l-0.015 0.054 0.447-0.005 0.447-0.007 0.022-0.093c0.024-0.090 0.024-0.090 0.154-0.090 0.127 0 0.127 0 0.105 0.063-0.051 0.134-0.056 0.132 0.374 0.132 0.682 0 0.711-0.017 1.236-0.74l0.193-0.264 0.054 0.359c0.085 0.535 0.183 0.62 0.713 0.62h0.3l0.093-0.313c0.112-0.381 0.117-0.347-0.049-0.347-0.21 0-0.208 0.002-0.276-0.432l-0.061-0.386-0.406-0.015 0.076-0.095 0.076-0.098 0.53-0.005 0.528-0.007 0.078-0.254c0.1-0.32 0.137-0.296-0.408-0.296h-0.462l0.015-0.068c0.010-0.037 0.041-0.137 0.125-0.383l0.97-0.025 0.081-0.269c0.044-0.149 0.081-0.276 0.081-0.288 0-0.010-0.647-0.017-1.436-0.017h-1.439l-0.083 0.286-0.085 0.288 0.508 0.007c0.279 0.002 0.508 0.012 0.508 0.022 0 0.007-0.029 0.112-0.13 0.447l-0.525 0.005-0.528 0.007-0.078 0.261c-0.095 0.317-0.134 0.288 0.386 0.288h0.435l-0.212 0.298c-0.513 0.723-0.503 0.713-0.618 0.77-0.078 0.041-0.151 0.056-0.261 0.056-0.169 0-0.169 0-0.12-0.142 0.042-0.12 0.037-0.127-0.1-0.127-0.093 0-0.107-0.007-0.095-0.044 0.115-0.371 0.894-2.966 0.894-2.973s0.071-0.012 0.159-0.012h0.156l0.049-0.154 0.049-0.151v0.208c0.005 0.437 0.127 0.508 0.86 0.493l0.283-0.005 0.086-0.288 0.088-0.286-0.147-0.017c-0.203-0.024-0.215-0.039-0.215-0.266v-0.193h-0.42c-1.312 0-1.949 0.056-2.223 0.195-0.208 0.105-0.208 0.105-0.154-0.049 0.020-0.056 0.037-0.112 0.037-0.125zM16.262 18.444c0.015-0.034-2.399-0.047-2.418-0.012s-0.164 0.506-0.164 0.537c0 0.024 0.064 0.032 0.259 0.032h0.261l-0.134 0.489h-0.276c-0.244 0-0.278 0.005-0.291 0.042-0.005 0.024-0.044 0.154-0.161 0.554 0 0.007 0.122 0.015 0.269 0.015 0.149 0 0.269 0.005 0.269 0.010s-0.071 0.244-0.159 0.53c-0.276 0.914-0.257 0.938 0.791 0.938h0.669l0.095-0.315c0.112-0.369 0.122-0.347-0.132-0.313-0.616 0.088-0.633 0.071-0.467-0.474l0.112-0.376h0.992l0.063-0.215c0.034-0.117 0.073-0.244 0.085-0.283 0.015-0.039 0.024-0.081 0.024-0.090 0-0.012-0.22-0.022-0.491-0.022-0.454 0-0.489-0.002-0.476-0.044 0.007-0.022 0.041-0.132 0.139-0.445h0.967zM19.362 19.605c0.012-0.039-0.015-0.042-0.317-0.042h-0.327l-0.041 0.127c-0.073 0.225-0.088 0.239-0.269 0.239h-0.159v-0.342l-0.408 0.005-0.41 0.007-0.022 0.887c-0.024 1.007-0.027 0.985 0.171 1.050 0.13 0.044 1.119 0.073 1.143 0.034 0.015-0.024 0.186-0.586 0.186-0.613 0-0.005-0.142 0-0.315 0.010l-0.315 0.017-0.042-0.063c-0.041-0.064-0.046-0.452-0.007-0.493 0.010-0.007 0.161-0.022 0.342-0.032 0.523-0.029 0.65-0.13 0.743-0.577 0.020-0.093 0.041-0.191 0.049-0.215zM20.871 12.755c0.161-0.706 0.176-0.762 0.222-0.752 0.027 0.005 0.203 0.022 0.391 0.037 1.202 0.098 0.682 1.519-0.545 1.485l-0.242-0.007zM14.496 13.847c0.349-0.142 0.423 0.215 0.198 0.965-0.122 0.403-0.376 0.63-0.552 0.493-0.235-0.181 0.044-1.334 0.354-1.458zM24.037 13.925c0.239-0.12 0.415 0.022 0.415 0.335 0 0.657-0.403 1.26-0.728 1.092-0.254-0.132-0.007-1.265 0.313-1.427zM17.576 17.736c0.015-0.039 1.38-0.044 1.38-0.002 0 0.015-0.017 0.086-0.076 0.283l-0.408 0.015c-0.464 0.015-0.569 0.037-0.882 0.203-0.112 0.059-0.198 0.093-0.191 0.073 0.007-0.017 0.046-0.147 0.090-0.286zM17.295 18.652c0-0.010 0.313-0.017 1.39-0.017l-0.088 0.257-1.373 0.012zM21.641 18.073l0.11-0.366h0.349c0.193 0 0.349 0.007 0.349 0.015 0 0.017-0.149 0.508-0.156 0.515-0.002 0.002-0.085 0.017-0.186 0.034-0.1 0.015-0.266 0.059-0.366 0.098s-0.191 0.071-0.198 0.071 0.037-0.166 0.098-0.366zM21.392 18.896c0.005-0.010 0.169-0.017 0.362-0.017h0.349l-0.059 0.188c-0.032 0.105-0.066 0.22-0.076 0.259-0.017 0.086-0.027 0.090-0.242 0.127-0.098 0.017-0.266 0.071-0.374 0.117-0.11 0.046-0.193 0.078-0.188 0.068 0.005-0.007 0.056-0.173 0.112-0.369s0.11-0.361 0.115-0.374zM20.837 20.741l0.198-0.664 0.699 0.034c-0.007 0.017-0.056 0.171-0.198 0.65z" fill="#444444"></path>
</svg>
